<svg xmlns="http://www.w3.org/2000/svg" width="2018.02" height="302.19" viewBox="0 0 2018.02 302.19">
  <defs>
    <style>
      .a {
        fill: #fff;
      }
    </style>
  </defs>
  <title>gd_codelabs_lockup_horizontal_white</title>
  <g>
    <g>
      <path class="a" d="M823.82,285.47a109,109,0,0,1-41.08-41.4q-14.93-26.31-14.93-58.62t14.93-58.63a109.07,109.07,0,0,1,41.08-41.39Q850,70.35,882,70.35q24.62,0,45.08,9.39a105,105,0,0,1,35.55,26.62l-18.78,18.15q-12.62-15.08-27.54-22.15T882,95.28a88.32,88.32,0,0,0-44,11.23,83.58,83.58,0,0,0-31.85,31.7q-11.85,20.47-11.85,47.24t11.85,47.24A83.49,83.49,0,0,0,838,264.38a88.23,88.23,0,0,0,44,11.24q40,0,68-32.93l19.08,18.46a111.21,111.21,0,0,1-37.85,28.78Q908.76,300.55,882,300.54,850,300.54,823.82,285.47Z" transform="translate(-2.01 -34.11)"/>
      <path class="a" d="M1019.86,289.47a77.47,77.47,0,0,1-28.77-30.16,91.36,91.36,0,0,1,0-84.32,77.41,77.41,0,0,1,28.77-30.16q18.47-11.09,41.55-11.08T1103,144.83A77.5,77.5,0,0,1,1131.73,175a91.43,91.43,0,0,1,0,84.32A77.57,77.57,0,0,1,1103,289.47q-18.46,11.07-41.54,11.07T1019.86,289.47Zm68.47-19.85a53.48,53.48,0,0,0,20-20.78q7.53-13.53,7.54-31.69t-7.54-31.7a53.45,53.45,0,0,0-20-20.77,52.74,52.74,0,0,0-26.92-7.24,53.6,53.6,0,0,0-27.09,7.24,53,53,0,0,0-20.15,20.77q-7.54,13.55-7.54,31.7t7.54,31.69a53.05,53.05,0,0,0,20.15,20.78,53.59,53.59,0,0,0,27.09,7.23A52.73,52.73,0,0,0,1088.33,269.62Z" transform="translate(-2.01 -34.11)"/>
      <path class="a" d="M1194.81,289.77a75.54,75.54,0,0,1-26.93-29.69q-9.84-18.93-9.84-42.93,0-23.7,9.84-42.78a75.25,75.25,0,0,1,26.93-29.85,69.8,69.8,0,0,1,38-10.77q18.15,0,32.31,8.15t21.54,20.16h1.23l-1.23-21.85V75.28h26.16V295.62H1287.9V272.54h-1.23q-7.38,11.7-21.54,19.85t-32.31,8.15A69.8,69.8,0,0,1,1194.81,289.77Zm66.78-20.31a53.88,53.88,0,0,0,19.08-20.92q7.23-13.54,7.23-31.39t-7.23-31.39a53.91,53.91,0,0,0-19.08-20.93,48.11,48.11,0,0,0-51.24,0,53.26,53.26,0,0,0-19.23,21.08q-7.23,13.69-7.23,31.24t7.23,31.23a53.26,53.26,0,0,0,19.23,21.08,48.11,48.11,0,0,0,51.24,0Z" transform="translate(-2.01 -34.11)"/>
      <path class="a" d="M1373.46,289.77a74.7,74.7,0,0,1-27.85-29.69q-10-18.93-10-42.63A93.47,93.47,0,0,1,1345,175.6a76,76,0,0,1,26.62-30.47q17.23-11.37,40-11.38,23.09,0,40,10.31a68.38,68.38,0,0,1,26,28.46q9.07,18.16,9.08,41.55a30.42,30.42,0,0,1-.93,8h-124q.93,17.85,8.62,30.16a50.15,50.15,0,0,0,19.54,18.46,53,53,0,0,0,24.77,6.16q30.16,0,46.47-28.31l22.16,10.77a79.06,79.06,0,0,1-27.54,30.16q-17.38,11.07-42,11.07Q1391.3,300.54,1373.46,289.77ZM1459,200.53a51,51,0,0,0-5.54-19.7q-4.92-9.84-15.54-16.62t-26.62-6.77q-18.46,0-31.24,11.85t-16.77,31.24Z" transform="translate(-2.01 -34.11)"/>
      <path class="a" d="M1511,75.28h26.15V295.62H1511Z" transform="translate(-2.01 -34.11)"/>
      <path class="a" d="M1587.65,293.77a50.69,50.69,0,0,1-20.93-18.61,49.9,49.9,0,0,1-7.39-26.93q0-24.93,18.78-38.93t47.39-14a107.57,107.57,0,0,1,26.31,3.07q12.15,3.09,18.62,7.08v-9.54q0-17.53-12.31-28.16T1627,157.14a52.45,52.45,0,0,0-24.31,5.69,44.37,44.37,0,0,0-17.54,15.85l-19.7-14.77a63,63,0,0,1,25.39-22.16,79.71,79.71,0,0,1,35.85-8q32,0,50.32,16.77t18.31,45.7v99.4h-24.93V273.16h-1.23q-6.77,11.38-20.31,19.38a58.72,58.72,0,0,1-30.47,8Q1601.19,300.54,1587.65,293.77Zm57.85-23.08a51.26,51.26,0,0,0,18.16-18.15,47.92,47.92,0,0,0,6.77-24.93,64.6,64.6,0,0,0-18.16-8,82.56,82.56,0,0,0-22.77-3.08q-21.54,0-32.47,8.92a28.46,28.46,0,0,0-10.92,23.09,25.65,25.65,0,0,0,9.85,20.92q9.84,8,24.92,8A47.27,47.27,0,0,0,1645.5,270.69Z" transform="translate(-2.01 -34.11)"/>
      <path class="a" d="M1773.06,292.39q-14.31-8.14-21.39-19.85h-1.23v23.08h-24.93V75.28h26.16v64.93l-1.23,21.85h1.23q7.08-12,21.39-20.16a63.86,63.86,0,0,1,32.16-8.15,70.57,70.57,0,0,1,38.16,10.77,74.87,74.87,0,0,1,27.08,29.85q9.86,19.08,9.85,42.78,0,24-9.85,42.93a75.15,75.15,0,0,1-27.08,29.69,70.57,70.57,0,0,1-38.16,10.77A63.86,63.86,0,0,1,1773.06,292.39Zm54.63-22.93a53.26,53.26,0,0,0,19.23-21.08q7.23-13.68,7.23-31.23t-7.23-31.24a53.26,53.26,0,0,0-19.23-21.08,47.85,47.85,0,0,0-51.09,0,52.44,52.44,0,0,0-19.08,20.93q-7.08,13.55-7.08,31.39t7.08,31.39a52.41,52.41,0,0,0,19.08,20.92,47.85,47.85,0,0,0,51.09,0Z" transform="translate(-2.01 -34.11)"/>
      <path class="a" d="M1915.7,288.7a64.66,64.66,0,0,1-24-30.32l23.39-10.46q5.84,14.16,17.38,21.85a44.83,44.83,0,0,0,25.39,7.69q14.78,0,25.24-6t10.46-17.08q0-9.84-8.31-15.85t-26.16-10.31L1940,223.3q-18.77-4.62-30.77-15.69t-12-28.62a37.31,37.31,0,0,1,8.15-23.85,52.12,52.12,0,0,1,21.7-15.85,76.29,76.29,0,0,1,29.23-5.54q20.63,0,36.78,8.92T2016,167.6l-22.78,10.46q-10.45-20.92-37.23-20.92-12.93,0-22.62,6t-9.7,15.23a17,17,0,0,0,6.77,14q6.77,5.38,20.31,8.77l22.78,5.85q23.07,5.85,34.77,17.39a38,38,0,0,1,11.7,28.16,40.77,40.77,0,0,1-8.31,25.39q-8.31,10.92-22.47,16.77a81.63,81.63,0,0,1-31.39,5.84Q1932.63,300.54,1915.7,288.7Z" transform="translate(-2.01 -34.11)"/>
    </g>
    <g>
      <path class="a" d="M252.12,243.17,76.87,142A49.9,49.9,0,1,0,27,228.42L202.22,329.6a49.9,49.9,0,1,0,49.9-86.43Z" transform="translate(-2.01 -34.11)"/>
      <path class="a" d="M601.61,142,426.36,40.81a49.9,49.9,0,1,0-49.9,86.43L551.71,228.42A49.9,49.9,0,1,0,601.61,142Z" transform="translate(-2.01 -34.11)"/>
      <path class="a" d="M544.77,240.44,463,193.22l-86.51,49.95a49.9,49.9,0,1,0,49.9,86.43l140.87-81.33A63.75,63.75,0,0,1,544.77,240.44Z" transform="translate(-2.01 -34.11)"/>
      <path class="a" d="M83.81,130l81.8,47.22,86.51-49.95a49.9,49.9,0,1,0-49.9-86.43L61.35,122.14A63.75,63.75,0,0,1,83.81,130Z" transform="translate(-2.01 -34.11)"/>
    </g>
  </g>
</svg>
